<?xml version="1.0" encoding="UTF-8" standalone="no"?>
<!-- Created with Inkscape (http://www.inkscape.org/) -->

<svg
   xmlns:dc="http://purl.org/dc/elements/1.1/"
   xmlns:cc="http://creativecommons.org/ns#"
   xmlns:rdf="http://www.w3.org/1999/02/22-rdf-syntax-ns#"
   xmlns:svg="http://www.w3.org/2000/svg"
   xmlns="http://www.w3.org/2000/svg"
   xmlns:sodipodi="http://sodipodi.sourceforge.net/DTD/sodipodi-0.dtd"
   xmlns:inkscape="http://www.inkscape.org/namespaces/inkscape"
   width="210mm"
   height="297mm"
   viewBox="0 0 210 297"
   version="1.1"
   id="svg146"
   inkscape:version="0.92.3 (2405546, 2018-03-11)"
   sodipodi:docname="fondo oscuro.svg">
  <defs
     id="defs140" />
  <sodipodi:namedview
     id="base"
     pagecolor="#ffffff"
     bordercolor="#666666"
     borderopacity="1.0"
     inkscape:pageopacity="0.0"
     inkscape:pageshadow="2"
     inkscape:zoom="0.35"
     inkscape:cx="-107.14286"
     inkscape:cy="560"
     inkscape:document-units="mm"
     inkscape:current-layer="layer1"
     showgrid="false"
     inkscape:window-width="1366"
     inkscape:window-height="668"
     inkscape:window-x="0"
     inkscape:window-y="27"
     inkscape:window-maximized="1" />
  <metadata
     id="metadata143">
    <rdf:RDF>
      <cc:Work
         rdf:about="">
        <dc:format>image/svg+xml</dc:format>
        <dc:type
           rdf:resource="http://purl.org/dc/dcmitype/StillImage" />
        <dc:title></dc:title>
      </cc:Work>
    </rdf:RDF>
  </metadata>
  <g
     inkscape:label="Capa 1"
     inkscape:groupmode="layer"
     id="layer1">
    <rect
       style="fill:#ff2a2a;fill-opacity:1;stroke-width:0.29214337"
       id="rect148"
       width="142.875"
       height="67.279762"
       x="18.898809"
       y="77.01786" />
    <g
       transform="matrix(0.26458333,0,0,0.26458333,-52.618904,-39.485682)"
       id="g5468"
       style="fill:#ffffff">
      <flowRoot
         style="font-style:normal;font-variant:normal;font-weight:normal;font-stretch:normal;font-size:40px;line-height:1.25;font-family:opensans;-inkscape-font-specification:opensans;letter-spacing:0px;word-spacing:0px;fill:#ffffff;fill-opacity:1;stroke:none"
         id="flowRoot3721-9"
         xml:space="preserve"
         transform="translate(-94.423282,-34.877818)"><flowRegion
           style="font-style:normal;font-variant:normal;font-weight:normal;font-stretch:normal;font-family:opensans;-inkscape-font-specification:opensans;fill:#ffffff"
           id="flowRegion3723-9"><rect
             style="font-style:normal;font-variant:normal;font-weight:normal;font-stretch:normal;font-family:opensans;-inkscape-font-specification:opensans;fill:#ffffff"
             y="654.39868"
             x="425.70224"
             height="119.36921"
             width="427.14044"
             id="rect3725-6" /></flowRegion><flowPara
           id="flowPara3727-0"><flowSpan
             id="flowSpan4548-2"
             style="font-style:normal;font-variant:normal;font-weight:bold;font-stretch:normal;font-family:FreeSerif;-inkscape-font-specification:'FreeSerif Bold';fill:#ffffff">MALLORCA</flowSpan><flowSpan
             id="flowSpan4550-7"
             style="font-style:italic;font-variant:normal;font-weight:normal;font-stretch:normal;font-family:'Courier 10 Pitch';-inkscape-font-specification:'Courier 10 Pitch Italic';fill:#ffffff">rent</flowSpan></flowPara></flowRoot>      <path
         sodipodi:nodetypes="cscscccccccscccscscccscccscscc"
         inkscape:connector-curvature="0"
         id="path3735-3"
         d="m 347.87469,583.67945 c 0,-0.36964 12.29647,-17.16703 27.3255,-37.32752 l 27.32549,-36.65548 v -17.95764 c 0,-12.80303 -0.52275,-16.3268 -3.06894,-18.58219 -0.2468,-6.88838 5.09322,-3.98011 15.62325,-3.68962 l 7.52065,-0.17008 0.38933,29.12323 0.38933,29.12323 7.35122,0.42776 7.35122,0.42781 0.90251,-5.46146 c 0.49637,-3.00378 0.90962,-10.15351 0.91835,-15.88822 l -0.70325,-11.14598 48.07377,0.45467 c 25.9053,-0.008 51.05296,-0.10393 56.19447,-0.52955 l 9.34817,-0.77359 32.82611,44.06158 c 18.05435,24.23388 32.61596,44.18971 32.3591,44.34629 -0.257,0.15648 -6.93879,0.0227 -14.84878,-0.29971 L 588.77037,582.5787 567.5021,554.34185 C 555.80458,538.81162 543.99438,523.51633 541.25721,520.3523 l -4.97665,-5.75271 -3.68852,4.31456 c -2.02866,2.37297 -14.36923,18.06716 -27.4235,34.87593 l -23.73498,30.56137 h -66.77945 c -36.7287,0 -66.77945,-0.30236 -66.77945,-0.67208 z"
         style="fill:#ffffff;fill-opacity:1;stroke:#000000;stroke-width:3.79999995;stroke-miterlimit:4;stroke-dasharray:none;stroke-opacity:1" />
      <path
         sodipodi:nodetypes="ccsscscscsscc"
         inkscape:connector-curvature="0"
         id="path3737-2"
         d="M 639.19363,528.85499 597.35837,477.05384 574.501,476.54077 c -13.91914,-0.31257 -44.06618,-1.02539 -67.0052,-1.17971 -22.93903,-0.1542 -51.15527,0.79491 -52.51762,0.25474 -2.18597,-0.86698 2.9909,-6.37995 8.7346,-13.20786 l 7.19286,-8.55057 34.47465,0.38381 c 37.09603,0.41299 105.70623,2.55465 106.28491,3.31767 33.59544,44.29939 86.38988,119.84061 86.38988,121.83178 0,0.48374 -1.4317,3.03681 -7.5761,3.03681 h -11.1715 z"
         style="fill:#ffffff;stroke:#000000;stroke-width:3.79999995;stroke-miterlimit:4;stroke-dasharray:none;stroke-opacity:1" />
    </g>
  </g>
</svg>
