<?xml version="1.0" encoding="UTF-8" standalone="no"?>
<!-- Created with Inkscape (http://www.inkscape.org/) -->

<svg
   xmlns:dc="http://purl.org/dc/elements/1.1/"
   xmlns:cc="http://creativecommons.org/ns#"
   xmlns:rdf="http://www.w3.org/1999/02/22-rdf-syntax-ns#"
   xmlns:svg="http://www.w3.org/2000/svg"
   xmlns="http://www.w3.org/2000/svg"
   xmlns:sodipodi="http://sodipodi.sourceforge.net/DTD/sodipodi-0.dtd"
   xmlns:inkscape="http://www.inkscape.org/namespaces/inkscape"
   width="210mm"
   height="297mm"
   viewBox="0 0 210 297"
   version="1.1"
   id="svg4675"
   inkscape:version="0.92.3 (2405546, 2018-03-11)"
   sodipodi:docname="logoNegativo.svg">
  <defs
     id="defs4669" />
  <sodipodi:namedview
     id="base"
     pagecolor="#ffffff"
     bordercolor="#666666"
     borderopacity="1.0"
     inkscape:pageopacity="0.0"
     inkscape:pageshadow="2"
     inkscape:zoom="0.7"
     inkscape:cx="478.11482"
     inkscape:cy="554.56442"
     inkscape:document-units="mm"
     inkscape:current-layer="layer1"
     showgrid="false"
     inkscape:window-width="1366"
     inkscape:window-height="668"
     inkscape:window-x="0"
     inkscape:window-y="27"
     inkscape:window-maximized="1" />
  <metadata
     id="metadata4672">
    <rdf:RDF>
      <cc:Work
         rdf:about="">
        <dc:format>image/svg+xml</dc:format>
        <dc:type
           rdf:resource="http://purl.org/dc/dcmitype/StillImage" />
        <dc:title></dc:title>
      </cc:Work>
    </rdf:RDF>
  </metadata>
  <g
     inkscape:label="Capa 1"
     inkscape:groupmode="layer"
     id="layer1">
    <path
       style="fill:none;stroke:#000000;stroke-width:0.26458332px;stroke-linecap:butt;stroke-linejoin:miter;stroke-opacity:1"
       d="m 63.607598,141.56347 14.126078,-18.43114 13.85697,18.2966 h 8.879254 l -18.02754,-24.08155 -30.673728,-0.13454 -0.269081,8.74469 -3.632412,-0.13452 v -15.33686 l -6.592175,0.13451 -0.269054,1.74895 h 1.210812 l -0.269081,8.74472 -15.202323,20.44914 z"
       id="path3717"
       inkscape:connector-curvature="0"
       sodipodi:nodetypes="ccccccccccccccc" />
    <path
       style="fill:none;stroke:#000000;stroke-width:0.26458332px;stroke-linecap:butt;stroke-linejoin:miter;stroke-opacity:1"
       d="m 53.1714,112.30061 4.185708,-6.0883 37.290904,0.76105 23.164118,33.24787 -5.27971,1.37936 -21.689592,-28.91946 z"
       id="path3719"
       inkscape:connector-curvature="0"
       sodipodi:nodetypes="ccccccc" />
    <flowRoot
       transform="matrix(0.26458333,0,0,0.26458333,-93.291414,-20.231479)"
       xml:space="preserve"
       id="flowRoot3721"
       style="font-style:normal;font-variant:normal;font-weight:normal;font-stretch:normal;font-size:40px;line-height:1.25;font-family:opensans;-inkscape-font-specification:opensans;letter-spacing:0px;word-spacing:0px;fill:#0000ff;fill-opacity:1;stroke:none"><flowRegion
         id="flowRegion3723"
         style="font-style:normal;font-variant:normal;font-weight:normal;font-stretch:normal;font-family:opensans;-inkscape-font-specification:opensans;fill:#0000ff"><rect
           id="rect3725"
           width="427.14044"
           height="119.36921"
           x="425.70224"
           y="654.39868"
           style="font-style:normal;font-variant:normal;font-weight:normal;font-stretch:normal;font-family:opensans;-inkscape-font-specification:opensans;fill:#0000ff" /></flowRegion><flowPara
         id="flowPara3727"><flowSpan
           style="font-style:normal;font-variant:normal;font-weight:bold;font-stretch:normal;font-family:FreeSerif;-inkscape-font-specification:'FreeSerif Bold';fill:#000080"
           id="flowSpan4548">MALLORCA</flowSpan><flowSpan
           style="font-style:italic;font-variant:normal;font-weight:normal;font-stretch:normal;font-family:'Courier 10 Pitch';-inkscape-font-specification:'Courier 10 Pitch Italic';fill:#ff6600"
           id="flowSpan4550">rent</flowSpan></flowPara></flowRoot>    <path
       style="fill:#00ff00;stroke-width:0.38051933"
       d="m 28.359448,139.9565 c 0.51425,-0.68018 3.87363,-5.19867 7.46529,-10.04111 l 6.530293,-8.80442 v -4.60888 c 0,-2.81891 -0.147786,-4.60889 -0.380521,-4.60889 -0.209286,0 -0.380519,-0.25685 -0.380519,-0.57078 0,-0.45979 0.591918,-0.57077 3.044153,-0.57077 h 3.044154 v 7.566 c 0,7.52457 0.0047,7.56726 0.856168,7.79545 0.470895,0.1262 1.40707,0.23178 2.080395,0.23464 l 1.224225,0.005 0.107592,-4.28084 0.107593,-4.28084 15.075289,-0.0994 15.075292,-0.0995 7.914581,10.56373 c 4.353021,5.81005 8.33899,11.12629 8.857711,11.81385 l 0.943126,1.25013 -4.114779,-0.10857 -4.114779,-0.10856 -6.776837,-8.93934 c -3.727259,-4.91664 -6.92206,-8.98775 -7.099569,-9.04692 -0.177499,-0.0592 -3.472051,4.00635 -7.321225,9.03447 L 63.49859,141.1932 H 45.461519 27.424448 Z"
       id="path3729"
       inkscape:connector-curvature="0" />
    <path
       style="fill:#000080;stroke-width:0.38051933"
       d="M 101.8075,126.77279 91.054153,112.3842 72.78002,112.18924 c -10.050772,-0.10723 -18.366002,-0.28683 -18.478291,-0.39911 -0.112287,-0.11229 0.535636,-1.33867 1.439828,-2.7253 l 1.643983,-2.52114 14.07922,0.24732 c 7.743568,0.13602 16.127767,0.35506 18.631559,0.48676 l 4.552344,0.23946 12.303257,16.51925 c 8.95365,12.02182 11.21918,15.95704 10.86021,16.18475 -0.2713,0.1721 -0.68787,0.66576 -2.25469,0.75997 l -2.99659,0.18018 z"
       id="path3733"
       inkscape:connector-curvature="0"
       sodipodi:nodetypes="ccssscsccscscc" />
    <path
       style="fill:#000080;fill-opacity:1;stroke:#000000;stroke-width:1.00541663;stroke-miterlimit:4;stroke-dasharray:none;stroke-opacity:1"
       d="m 27.895295,141.01537 c 0,-0.0978 3.253441,-4.54211 7.229866,-9.87624 l 7.22987,-9.69843 v -4.75129 c 0,-3.38747 -0.138309,-4.3198 -0.811985,-4.91654 -0.06535,-1.82255 1.347583,-1.05307 4.133648,-0.97621 l 1.989846,-0.045 0.10301,7.70551 0.103008,7.70552 1.945007,0.11318 1.94501,0.11319 0.23879,-1.445 c 0.131333,-0.79476 0.240675,-2.68645 0.242977,-4.20377 l -0.186071,-2.94904 12.719526,0.12031 c 6.854106,-0.002 13.50776,-0.0275 14.868118,-0.14012 l 2.473375,-0.20468 8.685237,11.65796 c 4.776882,6.41188 8.629642,11.69186 8.561683,11.73329 -0.06795,0.0414 -1.835888,0.006 -3.928745,-0.0793 l -3.805192,-0.15459 -5.627222,-7.47099 c -3.094969,-4.10905 -6.219754,-8.15593 -6.94396,-8.99307 l -1.316742,-1.52208 -0.975918,1.14156 c -0.536752,0.62785 -3.801864,4.78027 -7.255801,9.22759 l -6.279886,8.08604 H 45.564016 c -9.717802,0 -17.668729,-0.08 -17.668729,-0.17782 z"
       id="path3735"
       inkscape:connector-curvature="0"
       sodipodi:nodetypes="cscscccccccscccscscccscccscscc" />
    <path
       style="fill:#ff6600;stroke:#000000;stroke-width:1.00541663;stroke-miterlimit:4;stroke-dasharray:none;stroke-opacity:1"
       d="m 101.91173,126.38685 -11.068905,-13.70572 -6.047684,-0.13574 c -3.682765,-0.0827 -11.659172,-0.27131 -17.728454,-0.31214 -6.069285,-0.0408 -13.534832,0.21032 -13.895287,0.0674 -0.578372,-0.22939 0.791342,-1.68803 2.311029,-3.49457 l 1.903111,-2.26235 9.121418,0.10155 c 9.814991,0.10927 27.968109,0.67592 28.121213,0.8778 8.888799,11.72088 22.857329,31.70783 22.857329,32.23466 0,0.12799 -0.37881,0.8035 -2.0045,0.8035 h -2.95581 z"
       id="path3737"
       inkscape:connector-curvature="0"
       sodipodi:nodetypes="ccsscscscsscc" />
    <rect
       style="fill:#000000;fill-opacity:1;stroke:#000000;stroke-width:1.00541663;stroke-miterlimit:4;stroke-dasharray:none;stroke-opacity:1"
       id="rect4705"
       width="198.81548"
       height="90.714287"
       x="1.5119048"
       y="88.35714" />
    <path
       style="fill:#ffffff;stroke:#000000;stroke-width:0.26458332px;stroke-linecap:butt;stroke-linejoin:miter;stroke-opacity:1"
       d="m 77.214741,138.53966 14.126078,-18.43114 13.856971,18.2966 h 8.87925 l -18.027537,-24.08155 -30.673728,-0.13454 -0.269081,8.74469 -3.632412,-0.13452 v -15.33686 l -6.592175,0.13451 -0.269054,1.74895 h 1.210812 l -0.269081,8.74472 -15.202323,20.44914 z"
       id="path3717-0"
       inkscape:connector-curvature="0"
       sodipodi:nodetypes="ccccccccccccccc" />
    <path
       style="fill:#ffffff;stroke:#000000;stroke-width:0.26458332px;stroke-linecap:butt;stroke-linejoin:miter;stroke-opacity:1"
       d="m 66.778543,109.2768 4.185708,-6.0883 37.290909,0.76105 23.16412,33.24787 -5.27972,1.37936 -21.68959,-28.91946 z"
       id="path3719-4"
       inkscape:connector-curvature="0"
       sodipodi:nodetypes="ccccccc" />
    <flowRoot
       transform="matrix(0.26458333,0,0,0.26458333,-79.684271,-23.255289)"
       xml:space="preserve"
       id="flowRoot3721-6"
       style="font-style:normal;font-variant:normal;font-weight:normal;font-stretch:normal;font-size:40px;line-height:1.25;font-family:opensans;-inkscape-font-specification:opensans;letter-spacing:0px;word-spacing:0px;fill:#ffffff;fill-opacity:1;stroke:none;"><flowRegion
         id="flowRegion3723-2"
         style="font-style:normal;font-variant:normal;font-weight:normal;font-stretch:normal;font-family:opensans;-inkscape-font-specification:opensans;fill:#ffffff;"><rect
           id="rect3725-6"
           width="427.14044"
           height="119.36921"
           x="425.70224"
           y="654.39868"
           style="font-style:normal;font-variant:normal;font-weight:normal;font-stretch:normal;font-family:opensans;-inkscape-font-specification:opensans;fill:#ffffff;" /></flowRegion><flowPara
         id="flowPara3727-7"><flowSpan
           style="font-style:normal;font-variant:normal;font-weight:bold;font-stretch:normal;font-family:FreeSerif;-inkscape-font-specification:'FreeSerif Bold';fill:#ffffff;"
           id="flowSpan4548-5">MALLORCA</flowSpan><flowSpan
           style="font-style:italic;font-variant:normal;font-weight:normal;font-stretch:normal;font-family:'Courier 10 Pitch';-inkscape-font-specification:'Courier 10 Pitch Italic';fill:#ffffff;"
           id="flowSpan4550-6">rent</flowSpan></flowPara></flowRoot>    <path
       style="fill:#ffffff;stroke-width:0.38051933"
       d="m 41.966591,136.93269 c 0.51425,-0.68018 3.87363,-5.19867 7.46529,-10.04111 l 6.530293,-8.80442 v -4.60888 c 0,-2.81891 -0.147786,-4.60889 -0.380521,-4.60889 -0.209286,0 -0.380519,-0.25685 -0.380519,-0.57078 0,-0.45979 0.591918,-0.57077 3.044153,-0.57077 h 3.044154 v 7.566 c 0,7.52457 0.0047,7.56726 0.856168,7.79545 0.470895,0.1262 1.40707,0.23178 2.080395,0.23464 l 1.224225,0.005 0.107592,-4.28084 0.107593,-4.28084 15.075289,-0.0994 15.075292,-0.0995 7.914585,10.56373 c 4.35302,5.81005 8.33899,11.12629 8.85771,11.81385 l 0.94312,1.25013 -4.11478,-0.10857 -4.11477,-0.10856 -6.776842,-8.93934 c -3.727259,-4.91664 -6.92206,-8.98775 -7.099569,-9.04692 -0.177499,-0.0592 -3.472051,4.00635 -7.321225,9.03447 l -6.998491,9.14205 H 59.068662 41.031591 Z"
       id="path3729-9"
       inkscape:connector-curvature="0" />
    <path
       style="fill:#ffffff;stroke-width:0.38051933"
       d="M 115.41464,123.74898 104.6613,109.36039 86.387163,109.16543 c -10.050772,-0.10723 -18.366002,-0.28683 -18.478291,-0.39911 -0.112287,-0.11229 0.535636,-1.33867 1.439828,-2.7253 l 1.643983,-2.52114 14.07922,0.24732 c 7.743568,0.13602 16.127767,0.35506 18.631557,0.48676 l 4.55235,0.23946 12.30325,16.51925 c 8.95365,12.02182 11.21919,15.95704 10.86021,16.18475 -0.2713,0.1721 -0.68787,0.66576 -2.25469,0.75997 l -2.99659,0.18018 z"
       id="path3733-8"
       inkscape:connector-curvature="0"
       sodipodi:nodetypes="ccssscsccscscc" />
    <path
       style="fill:#ffffff;fill-opacity:1;stroke:#000000;stroke-width:1.00541663;stroke-miterlimit:4;stroke-dasharray:none;stroke-opacity:1"
       d="m 41.502438,137.99156 c 0,-0.0978 3.253441,-4.54211 7.229866,-9.87624 l 7.22987,-9.69843 v -4.75129 c 0,-3.38747 -0.138309,-4.3198 -0.811985,-4.91654 -0.06535,-1.82255 1.347583,-1.05307 4.133648,-0.9762 l 1.989846,-0.045 0.10301,7.70551 0.103008,7.70552 1.945007,0.11318 1.94501,0.11319 0.23879,-1.445 c 0.131333,-0.79476 0.240675,-2.68645 0.242977,-4.20377 l -0.186071,-2.94904 12.719526,0.12031 c 6.854106,-0.002 13.50776,-0.0275 14.868118,-0.14012 l 2.473375,-0.20468 8.685237,11.65796 c 4.77688,6.41188 8.62964,11.69186 8.56168,11.73329 -0.0679,0.0414 -1.83588,0.006 -3.92874,-0.0793 l -3.80519,-0.15459 -5.627226,-7.47099 c -3.094969,-4.10905 -6.219754,-8.15593 -6.94396,-8.99307 l -1.316742,-1.52208 -0.975918,1.14156 c -0.536752,0.62786 -3.801864,4.78027 -7.255801,9.22759 l -6.279886,8.08604 H 59.171159 c -9.717802,0 -17.668729,-0.08 -17.668729,-0.17782 z"
       id="path3735-7"
       inkscape:connector-curvature="0"
       sodipodi:nodetypes="cscscccccccscccscscccscccscscc" />
    <path
       style="fill:#ffffff;stroke:#000000;stroke-width:1.00541663;stroke-miterlimit:4;stroke-dasharray:none;stroke-opacity:1"
       d="m 115.51888,123.36304 -11.06891,-13.70572 -6.047686,-0.13574 c -3.682765,-0.0827 -11.659172,-0.27131 -17.728454,-0.31214 -6.069285,-0.0408 -13.534832,0.21032 -13.895287,0.0674 -0.578372,-0.22939 0.791342,-1.68803 2.311029,-3.49457 l 1.903111,-2.26235 9.121418,0.10155 c 9.814991,0.10927 27.968109,0.67592 28.121209,0.8778 8.8888,11.72088 22.85733,31.70783 22.85733,32.23466 0,0.12799 -0.37881,0.8035 -2.0045,0.8035 h -2.9558 z"
       id="path3737-2"
       inkscape:connector-curvature="0"
       sodipodi:nodetypes="ccsscscscsscc" />
  </g>
</svg>
