<?xml version="1.0" encoding="UTF-8" standalone="no"?>
<!-- Created with Inkscape (http://www.inkscape.org/) -->

<svg
   xmlns:dc="http://purl.org/dc/elements/1.1/"
   xmlns:cc="http://creativecommons.org/ns#"
   xmlns:rdf="http://www.w3.org/1999/02/22-rdf-syntax-ns#"
   xmlns:svg="http://www.w3.org/2000/svg"
   xmlns="http://www.w3.org/2000/svg"
   xmlns:sodipodi="http://sodipodi.sourceforge.net/DTD/sodipodi-0.dtd"
   xmlns:inkscape="http://www.inkscape.org/namespaces/inkscape"
   width="210mm"
   height="297mm"
   viewBox="0 0 210 297"
   version="1.1"
   id="svg4795"
   inkscape:version="0.92.3 (2405546, 2018-03-11)"
   sodipodi:docname="logoClaro.svg">
  <defs
     id="defs4789" />
  <sodipodi:namedview
     id="base"
     pagecolor="#ffffff"
     bordercolor="#666666"
     borderopacity="1.0"
     inkscape:pageopacity="0.0"
     inkscape:pageshadow="2"
     inkscape:zoom="0.49497475"
     inkscape:cx="53.948413"
     inkscape:cy="387.97248"
     inkscape:document-units="mm"
     inkscape:current-layer="layer1"
     showgrid="false"
     inkscape:window-width="1366"
     inkscape:window-height="668"
     inkscape:window-x="0"
     inkscape:window-y="27"
     inkscape:window-maximized="1" />
  <metadata
     id="metadata4792">
    <rdf:RDF>
      <cc:Work
         rdf:about="">
        <dc:format>image/svg+xml</dc:format>
        <dc:type
           rdf:resource="http://purl.org/dc/dcmitype/StillImage" />
        <dc:title></dc:title>
      </cc:Work>
    </rdf:RDF>
  </metadata>
  <g
     inkscape:label="Capa 1"
     inkscape:groupmode="layer"
     id="layer1">
    <rect
       style="fill:#ffd5d5;fill-opacity:1;stroke:#000000;stroke-width:1.20305514;stroke-miterlimit:4;stroke-dasharray:none;stroke-opacity:1"
       id="rect4797"
       width="166.17975"
       height="76.907867"
       x="27.279173"
       y="78.664154" />
    <path
       style="fill:none;stroke:#000000;stroke-width:0.26458332px;stroke-linecap:butt;stroke-linejoin:miter;stroke-opacity:1"
       d="m 92.333789,124.17657 14.126081,-18.43114 13.85697,18.2966 h 8.87925 L 111.16855,99.96047 80.494823,99.82593 80.225742,108.57062 76.59333,108.43611 V 93.09925 l -6.592175,0.13451 -0.269054,1.74895 h 1.210812 l -0.269081,8.74472 -15.202323,20.44914 z"
       id="path3717"
       inkscape:connector-curvature="0"
       sodipodi:nodetypes="ccccccccccccccc" />
    <path
       style="fill:none;stroke:#000000;stroke-width:0.26458332px;stroke-linecap:butt;stroke-linejoin:miter;stroke-opacity:1"
       d="m 81.897591,94.91371 4.185708,-6.08831 37.290901,0.76105 23.16413,33.24788 -5.27972,1.37936 -21.68959,-28.91946 z"
       id="path3719"
       inkscape:connector-curvature="0"
       sodipodi:nodetypes="ccccccc" />
    <flowRoot
       transform="matrix(0.26458333,0,0,0.26458333,-64.565224,-37.618383)"
       xml:space="preserve"
       id="flowRoot3721"
       style="font-style:normal;font-variant:normal;font-weight:normal;font-stretch:normal;font-size:40px;line-height:1.25;font-family:opensans;-inkscape-font-specification:opensans;letter-spacing:0px;word-spacing:0px;fill:#0000ff;fill-opacity:1;stroke:none"><flowRegion
         id="flowRegion3723"
         style="font-style:normal;font-variant:normal;font-weight:normal;font-stretch:normal;font-family:opensans;-inkscape-font-specification:opensans;fill:#0000ff"><rect
           id="rect3725"
           width="427.14044"
           height="119.36921"
           x="425.70224"
           y="654.39868"
           style="font-style:normal;font-variant:normal;font-weight:normal;font-stretch:normal;font-family:opensans;-inkscape-font-specification:opensans;fill:#0000ff" /></flowRegion><flowPara
         id="flowPara3727"><flowSpan
           style="font-style:normal;font-variant:normal;font-weight:bold;font-stretch:normal;font-family:FreeSerif;-inkscape-font-specification:'FreeSerif Bold';fill:#000080"
           id="flowSpan4548">MALLORCA</flowSpan><flowSpan
           style="font-style:italic;font-variant:normal;font-weight:normal;font-stretch:normal;font-family:'Courier 10 Pitch';-inkscape-font-specification:'Courier 10 Pitch Italic';fill:#ff6600"
           id="flowSpan4550">rent</flowSpan></flowPara></flowRoot>    <path
       style="fill:#00ff00;stroke-width:0.38051933"
       d="m 57.085639,122.5696 c 0.514249,-0.68018 3.87363,-5.19868 7.46529,-10.04111 l 6.530293,-8.80442 v -4.60889 c 0,-2.81891 -0.147786,-4.60888 -0.380521,-4.60888 -0.209286,0 -0.380519,-0.25685 -0.380519,-0.57078 0,-0.45979 0.591918,-0.57078 3.044153,-0.57078 h 3.044154 v 7.56601 c 0,7.52456 0.0047,7.56726 0.856168,7.79545 0.470895,0.12619 1.40707,0.23178 2.080395,0.23464 l 1.224225,0.005 0.107592,-4.28085 0.107593,-4.28084 15.075289,-0.0994 15.075289,-0.0995 7.91458,10.56374 c 4.35302,5.81005 8.33899,11.12628 8.85771,11.81385 l 0.94313,1.25012 -4.11478,-0.10856 -4.11478,-0.10857 -6.77683,-8.93934 c -3.72726,-4.91663 -6.92206,-8.98774 -7.09957,-9.04691 -0.1775,-0.0592 -3.47205,4.00634 -7.321228,9.03447 l -6.998491,9.14204 H 74.18771 56.150639 Z"
       id="path3729"
       inkscape:connector-curvature="0" />
    <path
       style="fill:#000080;stroke-width:0.38051933"
       d="M 130.53369,109.38589 119.78034,94.9973 101.50621,94.80234 C 91.455439,94.69511 83.140209,94.51551 83.02792,94.40322 c -0.112287,-0.11229 0.535636,-1.33867 1.439828,-2.72529 l 1.643983,-2.52114 14.079219,0.24731 c 7.74357,0.13602 16.12777,0.35507 18.63156,0.48677 l 4.55234,0.23946 12.30326,16.51924 c 8.95365,12.02183 11.21919,15.95704 10.86021,16.18476 -0.27129,0.1721 -0.68787,0.66575 -2.25469,0.75996 l -2.99659,0.18018 z"
       id="path3733"
       inkscape:connector-curvature="0"
       sodipodi:nodetypes="ccssscsccscscc" />
    <path
       style="fill:#000080;fill-opacity:1;stroke:#000000;stroke-width:1.00541663;stroke-miterlimit:4;stroke-dasharray:none;stroke-opacity:1"
       d="m 56.621486,123.62847 c 0,-0.0978 3.253441,-4.54211 7.229866,-9.87625 l 7.22987,-9.69842 v -4.7513 c 0,-3.38747 -0.138309,-4.31979 -0.811985,-4.91653 -0.06535,-1.82255 1.347583,-1.05307 4.133648,-0.97621 l 1.989846,-0.045 0.10301,7.70552 0.103008,7.70551 1.945007,0.11319 1.94501,0.11319 0.23879,-1.44501 c 0.131333,-0.79475 0.240675,-2.68645 0.242977,-4.20377 l -0.186071,-2.94903 12.719526,0.1203 c 6.854102,-0.002 13.507762,-0.0275 14.868122,-0.14012 l 2.47337,-0.20468 8.68524,11.65797 c 4.77688,6.41187 8.62964,11.69186 8.56168,11.73329 -0.0679,0.0414 -1.83589,0.006 -3.92874,-0.0793 l -3.8052,-0.1546 -5.62722,-7.47099 c -3.09497,-4.10904 -6.21975,-8.15592 -6.94396,-8.99307 l -1.31674,-1.52207 -0.97592,1.14155 c -0.53675,0.62786 -3.80186,4.78028 -7.255799,9.2276 l -6.279886,8.08603 H 74.290207 c -9.717802,0 -17.668729,-0.08 -17.668729,-0.17782 z"
       id="path3735"
       inkscape:connector-curvature="0"
       sodipodi:nodetypes="cscscccccccscccscscccscccscscc" />
    <path
       style="fill:#ff6600;stroke:#000000;stroke-width:1.00541663;stroke-miterlimit:4;stroke-dasharray:none;stroke-opacity:1"
       d="m 130.63792,108.99995 -11.0689,-13.70572 -6.04769,-0.13575 c -3.68276,-0.0827 -11.65917,-0.2713 -17.728452,-0.31213 -6.069285,-0.0408 -13.534832,0.21032 -13.895287,0.0674 -0.578372,-0.22939 0.791342,-1.68803 2.311029,-3.49458 l 1.903111,-2.26234 9.121418,0.10155 c 9.814991,0.10927 27.968111,0.67591 28.121211,0.8778 8.8888,11.72087 22.85733,31.70783 22.85733,32.23466 0,0.12799 -0.37881,0.80349 -2.0045,0.80349 h -2.95581 z"
       id="path3737"
       inkscape:connector-curvature="0"
       sodipodi:nodetypes="ccsscscscsscc" />
    <text
       xml:space="preserve"
       style="font-style:normal;font-weight:normal;font-size:10.58333302px;line-height:1.25;font-family:sans-serif;letter-spacing:0px;word-spacing:0px;fill:#000000;fill-opacity:1;stroke:none;stroke-width:0.26458332"
       x="9.0714283"
       y="123.13095"
       id="text5392"><tspan
         sodipodi:role="line"
         id="tspan5390"
         x="9.0714283"
         y="123.13095"
         style="stroke-width:0.26458332">20%</tspan></text>
    <rect
       style="fill:#ffff00;fill-opacity:1;stroke:#000000;stroke-width:1.00541663;stroke-miterlimit:4;stroke-dasharray:none;stroke-opacity:1"
       id="rect5394"
       width="161.01785"
       height="65.767853"
       x="30.238094"
       y="183.60713" />
    <flowRoot
       transform="matrix(0.26458333,0,0,0.26458333,-54.361775,58.811962)"
       xml:space="preserve"
       id="flowRoot3721-9"
       style="font-style:normal;font-variant:normal;font-weight:normal;font-stretch:normal;font-size:40px;line-height:1.25;font-family:opensans;-inkscape-font-specification:opensans;letter-spacing:0px;word-spacing:0px;fill:#000000;fill-opacity:1;stroke:none;"><flowRegion
         id="flowRegion3723-9"
         style="font-style:normal;font-variant:normal;font-weight:normal;font-stretch:normal;font-family:opensans;-inkscape-font-specification:opensans;fill:#000000;"><rect
           id="rect3725-6"
           width="427.14044"
           height="119.36921"
           x="425.70224"
           y="654.39868"
           style="font-style:normal;font-variant:normal;font-weight:normal;font-stretch:normal;font-family:opensans;-inkscape-font-specification:opensans;fill:#000000;" /></flowRegion><flowPara
         id="flowPara3727-0"><flowSpan
           style="font-style:normal;font-variant:normal;font-weight:bold;font-stretch:normal;font-family:FreeSerif;-inkscape-font-specification:'FreeSerif Bold';fill:#000000;"
           id="flowSpan4548-2">MALLORCA</flowSpan><flowSpan
           style="font-style:italic;font-variant:normal;font-weight:normal;font-stretch:normal;font-family:'Courier 10 Pitch';-inkscape-font-specification:'Courier 10 Pitch Italic';fill:#000000;"
           id="flowSpan4550-7">rent</flowSpan></flowPara></flowRoot>    <path
       style="fill:#000000;fill-opacity:1;stroke:#000000;stroke-width:1.00541663;stroke-miterlimit:4;stroke-dasharray:none;stroke-opacity:1"
       d="m 62.6629,222.4719 c 0,-0.0978 3.25344,-4.54211 7.22987,-9.87624 l 7.22987,-9.69843 v -4.75129 c 0,-3.38747 -0.13831,-4.3198 -0.81199,-4.91654 -0.0653,-1.82255 1.34758,-1.05307 4.13365,-0.97621 l 1.98984,-0.045 0.10301,7.70552 0.10301,7.70552 1.94501,0.11318 1.94501,0.11319 0.23879,-1.44501 c 0.13133,-0.79475 0.24067,-2.68645 0.24298,-4.20376 l -0.18607,-2.94904 12.71952,0.1203 c 6.85411,-0.002 13.50776,-0.0275 14.86812,-0.14011 l 2.47337,-0.20468 8.68524,11.65796 c 4.77688,6.41188 8.62964,11.69186 8.56168,11.73329 -0.068,0.0414 -1.83589,0.006 -3.92874,-0.0793 l -3.80519,-0.15459 -5.62723,-7.471 c -3.09497,-4.10904 -6.21975,-8.15592 -6.94396,-8.99307 l -1.31674,-1.52207 -0.97592,1.14156 c -0.53675,0.62785 -3.80186,4.78027 -7.2558,9.22759 l -6.27988,8.08603 H 80.33162 c -9.7178,0 -17.66873,-0.08 -17.66873,-0.17782 z"
       id="path3735-3"
       inkscape:connector-curvature="0"
       sodipodi:nodetypes="cscscccccccscccscscccscccscscc" />
    <path
       style="fill:#000000;stroke:#000000;stroke-width:1.00541663;stroke-miterlimit:4;stroke-dasharray:none;stroke-opacity:1"
       d="m 139.74103,207.96626 -11.06891,-13.70572 -6.04768,-0.13575 c -3.68277,-0.0827 -11.65918,-0.2713 -17.72846,-0.31213 -6.069282,-0.0408 -13.534829,0.21032 -13.895284,0.0674 -0.578372,-0.22939 0.791342,-1.68803 2.311029,-3.49458 l 1.903111,-2.26234 9.121414,0.10155 c 9.81499,0.10927 27.96811,0.67592 28.12122,0.8778 8.88879,11.72088 22.85732,31.70783 22.85732,32.23466 0,0.12799 -0.37881,0.80349 -2.0045,0.80349 h -2.9558 z"
       id="path3737-2"
       inkscape:connector-curvature="0"
       sodipodi:nodetypes="ccsscscscsscc" />
    <text
       xml:space="preserve"
       style="font-style:normal;font-weight:normal;font-size:10.58333302px;line-height:1.25;font-family:sans-serif;letter-spacing:0px;word-spacing:0px;fill:#000000;fill-opacity:1;stroke:none;stroke-width:0.26458332"
       x="2.1381562"
       y="215.75006"
       id="text5489"><tspan
         sodipodi:role="line"
         id="tspan5487"
         x="2.1381562"
         y="215.75006"
         style="stroke-width:0.26458332">&gt;20%</tspan></text>
  </g>
</svg>
